<?xml version="1.0" encoding="UTF-8"?>
<svg version="1.1" xmlns="http://www.w3.org/2000/svg" width="512" height="512">
<defs><style>.svg-fill{ fill: #005cbb; }</style></defs>
<path class="svg-fill" d="M0 0 C0.72832031 0.51175781 1.45664062 1.02351562 2.20703125 1.55078125 C3.16029297 2.21013672 3.16029297 2.21013672 4.1328125 2.8828125 C13.1614914 9.82949006 18.80585091 21.57892825 21.20703125 32.55078125 C22.78432624 50.83342711 20.51862483 66.24638531 8.46875 80.625 C-3.33821313 93.45865558 -18.97296074 96.99037728 -35.671875 99.11328125 C-39.48683313 99.64804384 -43.08698941 100.51310704 -46.79296875 101.55078125 C-46.46296875 102.54078125 -46.13296875 103.53078125 -45.79296875 104.55078125 C-44.93574219 104.62554687 -44.07851563 104.7003125 -43.1953125 104.77734375 C-36.72735715 105.52112216 -31.68854994 106.12589615 -27.03125 110.921875 C-24.10246075 114.77457253 -23.60121867 118.27442501 -23.79296875 122.98828125 C-24.52885239 128.11349434 -26.85846855 131.27668179 -30.79296875 134.55078125 C-37.6968224 138.33146301 -47.14675466 137.17375925 -54.54296875 135.36328125 C-63.69561001 132.53188863 -70.08605395 127.66373703 -75.05078125 119.4765625 C-79.11053649 111.1157379 -79.18836127 100.75155674 -77.16796875 91.7734375 C-73.40217336 82.20764475 -66.01411868 75.89992917 -56.83984375 71.7578125 C-50.69640861 69.32406704 -44.70359404 67.79447362 -38.16015625 66.8828125 C-37.3287915 66.76446045 -36.49742676 66.6461084 -35.64086914 66.52416992 C-33.99416787 66.29789715 -32.34480719 66.08994605 -30.69311523 65.90356445 C-23.52663014 64.94659331 -18.11943619 62.30580848 -13.41796875 56.73828125 C-9.98146592 49.99744877 -9.07303207 43.98090773 -10.79296875 36.55078125 C-12.1922182 33.24976994 -12.1922182 33.24976994 -13.79296875 30.55078125 C-14.12296875 29.56078125 -14.45296875 28.57078125 -14.79296875 27.55078125 C-17.13604965 26.42992813 -17.13604965 26.42992813 -19.79296875 25.55078125 C-20.42203125 25.21691406 -21.05109375 24.88304687 -21.69921875 24.5390625 C-28.10545941 21.51522129 -35.29233082 22.2686424 -41.79296875 24.55078125 C-52.37613881 28.80181479 -59.85702548 34.51309511 -67.79296875 42.55078125 C-68.83675254 43.59423742 -69.88102979 44.6372002 -70.92578125 45.6796875 C-72.89978882 47.65095254 -74.85794835 49.63417846 -76.80859375 51.62890625 C-79.00493582 53.83127395 -81.29597302 55.88022907 -83.65234375 57.91015625 C-87.90814546 61.5934105 -91.85355021 65.53442094 -95.79296875 69.55078125 C-100.37716159 74.22450911 -105.02905298 78.70836455 -109.99316406 82.97851562 C-112.30538561 84.99841616 -114.47162006 87.15619835 -116.66796875 89.30078125 C-134.10034599 105.07407707 -156.79672639 114.32655348 -180.4453125 113.796875 C-211.21080089 111.53523466 -236.06700014 96.74418369 -257.79296875 75.55078125 C-258.56979004 74.79667969 -258.56979004 74.79667969 -259.36230469 74.02734375 C-267.87737149 65.73254051 -267.87737149 65.73254051 -270.80859375 61.94921875 C-276.17354011 55.46481508 -284.17154998 52.1249124 -291.91796875 49.30078125 C-292.54276123 49.06689697 -293.16755371 48.8330127 -293.8112793 48.59204102 C-308.68041802 43.49577099 -323.57608495 43.2011516 -339.10546875 43.55078125 C-342.74736551 43.63073229 -346.38880766 43.69039376 -350.03125 43.73828125 C-351.26552483 43.77562378 -351.26552483 43.77562378 -352.5247345 43.8137207 C-355.89954452 43.85739866 -358.31508453 43.81373589 -361.30737305 42.16723633 C-363.20543056 40.10198755 -363.33139464 39.01935479 -363.29296875 36.23828125 C-363.05392072 31.62166611 -361.91675014 29.06503531 -358.79296875 25.55078125 C-345.77925454 13.82962556 -328.67177917 11.80583956 -311.79296875 12.55078125 C-302.71866248 13.26852299 -293.77278107 14.69589037 -284.80084229 16.19891357 C-278.56097955 17.23811822 -272.31177024 18.21740299 -266.0618 19.1935463 C-263.92278317 19.53034154 -261.78538528 19.87604263 -259.64805603 20.22335815 C-227.49482825 25.37075732 -195.29464254 25.34031084 -162.83095038 25.35629898 C-155.38877962 25.36094627 -147.94680582 25.39424923 -140.50472534 25.4291569 C-125.26749552 25.50002706 -110.03036646 25.53743337 -94.79296875 25.55078125 C-94.37567505 24.64320068 -94.37567505 24.64320068 -93.94995117 23.71728516 C-86.08714102 8.99380399 -64.9203095 -1.50149183 -49.79296875 -6.44921875 C-33.07346995 -11.42730361 -14.68033783 -9.55763513 0 0 Z " transform="translate(426.79296875,193.44921875)"/>
<path class="svg-fill" d="M0 0 C0.90280701 -0.0071553 1.80561401 -0.01431061 2.73577881 -0.02168274 C3.72904175 -0.02437164 4.72230469 -0.02706055 5.7456665 -0.02983093 C7.31172638 -0.03968773 7.31172638 -0.03968773 8.90942383 -0.04974365 C12.37599758 -0.06950798 15.84252794 -0.0811464 19.30914307 -0.09111023 C20.49133675 -0.09518576 21.67353043 -0.09926128 22.89154816 -0.10346031 C29.14890876 -0.12433466 35.40624734 -0.13863035 41.66363525 -0.147995 C48.13132863 -0.15906077 54.59867808 -0.19345915 61.06624985 -0.23316669 C66.03508143 -0.25929682 71.00383066 -0.26768366 75.97272491 -0.27127647 C78.35695976 -0.27615192 80.74119069 -0.287793 83.12535858 -0.30631447 C86.46261425 -0.33062784 89.79897463 -0.32975469 93.1362915 -0.32279968 C94.12145752 -0.33560974 95.10662354 -0.3484198 96.12164307 -0.36161804 C101.83658928 -0.3182047 105.18744724 0.28509451 109.69976807 4.14717102 C114.24942146 9.0759622 116.15458544 13.29901331 115.94976807 20.09638977 C115.2128351 26.14154304 112.31694526 30.36948059 107.69976807 34.14717102 C101.90786222 37.22272738 97.14513661 37.57831988 90.65289307 37.53535461 C89.66825073 37.54061157 88.6836084 37.54586853 87.66912842 37.55128479 C84.42917809 37.56443916 81.189723 37.55576267 77.94976807 37.54560852 C75.68967597 37.54763056 73.4295845 37.55054308 71.16949463 37.55430603 C66.43863701 37.55872321 61.70794961 37.55231768 56.97711182 37.5382843 C50.92108611 37.52119298 44.86545932 37.53103738 38.80944824 37.54900169 C34.14423634 37.55985578 29.47911859 37.55638569 24.81390381 37.54861832 C22.58123731 37.54662081 20.34856219 37.54905974 18.11590576 37.55605698 C14.99258868 37.56369801 11.86991257 37.5520296 8.74664307 37.53535461 C7.82903198 37.54142731 6.9114209 37.5475 5.96600342 37.55375671 C-0.89537266 37.48608711 -5.66423545 36.36380443 -11.05023193 31.83467102 C-15.17272224 26.91058538 -16.89525362 22.84033985 -16.64788818 16.45185852 C-15.82253664 10.98042695 -13.35790891 6.7875001 -9.17523193 3.20967102 C-5.70259027 0.71842808 -4.17149181 0.02265755 0 0 Z " transform="translate(201.30023193359375,343.8528289794922)"/>
<path class="svg-fill" d="M0 0 C3.87064881 2.30431622 6.4224995 4.84499901 8.4375 8.875 C9.77498423 16.30546797 8.9915542 21.17925643 6 28 C5.505 28.495 5.505 28.495 5 29 C4.9000124 37.95888888 8.2757778 45.7166581 14.12915039 52.37207031 C17.53772684 55.33806115 21.5967608 56.33878374 25.875 57.5625 C35.48602938 60.37952585 43.28746387 64.51774939 49 73 C49.495 76.465 49.495 76.465 50 80 C13.37 80 -23.26 80 -61 80 C-59.89987071 72.29909495 -58.79052634 69.77530419 -53 65 C-45.22826945 60.26770863 -34.27495062 54 -25 54 C-24.7525 53.46375 -24.505 52.9275 -24.25 52.375 C-23 50 -23 50 -21.0625 47.3125 C-17.62907899 41.79821778 -15.10132147 35.59030921 -16 29 C-17.39092892 26.37612865 -17.39092892 26.37612865 -19 24 C-20.70492882 19.50518766 -20.7957744 14.38732321 -19.28125 9.84375 C-17.26805042 5.49264123 -15.11297643 2.63652335 -11 0 C-7.10478897 -1.29840368 -3.8855784 -1.15286392 0 0 Z " transform="translate(264,132)"/>
<path class="svg-fill" d="M0 0 C0.11069824 0.56920166 0.22139648 1.13840332 0.33544922 1.72485352 C0.84550444 4.33802403 1.36021829 6.95025665 1.875 9.5625 C2.04902344 10.45775391 2.22304688 11.35300781 2.40234375 12.27539062 C2.57636719 13.15517578 2.75039063 14.03496094 2.9296875 14.94140625 C3.08679199 15.74263916 3.24389648 16.54387207 3.40576172 17.36938477 C4.13831676 20.61231023 5.08665233 23.80328317 6 27 C-15.78 27 -37.56 27 -60 27 C-58.68 21.72 -57.36 16.44 -56 11 C-55.31891813 8.00323976 -54.64392092 5.00496428 -54 2 C-43.87906977 2.8744186 -43.87906977 2.8744186 -39.0625 3.5625 C-25.30810156 5.29577785 -13.19875443 0 0 0 Z " transform="translate(278,309)"/>
</svg>
